<svg width="40" height="40" xmlns="http://www.w3.org/2000/svg">
    <path stroke="null" id="svg_1" fill="#562AE6"
          d="m35.05282,9.06108l-6.39212,-3.59149l-6.74747,-3.82338c-1.184,-0.69495 -2.72261,-0.69495 -4.02501,0l-6.62899,3.70744l-6.74677,3.8234c-1.30242,0.69496 -2.01246,2.08562 -2.01246,3.47546l0,15.06086c0,1.5059 0.94699,2.78057 2.24942,3.47554l6.39208,3.70741l6.74754,3.70748c1.18393,0.69489 2.72253,0.69489 4.02493,0l6.62899,-3.70748l6.74672,-3.82339c1.30247,-0.69496 2.0125,-1.96964 2.0125,-3.35956l0,-15.17676c-0.00075,-1.5059 -0.94772,-2.77985 -2.24938,-3.47554zm-3.13567,20.43282l-2.834,0c-2.385,2.23966 -5.61581,3.62352 -9.18168,3.62352c-3.56662,0 -6.79735,-1.38386 -9.18243,-3.62352l-2.83399,0c-2.01014,0 -3.26658,-2.1299 -2.26112,-3.83332l1.41076,-2.39151c-0.25643,-1.00846 -0.40765,-2.05741 -0.40765,-3.1437c0,-5.93494 4.07096,-10.93004 9.62593,-12.48317l1.3874,-2.35186c1.00468,-1.70344 3.51756,-1.70344 4.52299,0l1.3874,2.35186c5.55496,1.55313 9.6259,6.5475 9.6259,12.48317c0,1.08629 -0.15121,2.13523 -0.40762,3.1437l1.4108,2.39151c1.00387,1.70342 -0.25253,3.83332 -2.26272,3.83332z"/>
    <path stroke="null" id="svg_2" fill="#CFC5FF"
          d="m23.54996,7.64218l-1.3874,-2.35186c-1.00469,-1.70343 -3.51756,-1.70343 -4.52299,0l-1.3874,2.35186c1.16059,-0.32421 2.38194,-0.50881 3.64849,-0.50881c1.26736,0 2.48871,0.18461 3.64931,0.50881z"/>
    <path stroke="null" id="svg_3" fill="#CFC5FF"
          d="m7.03469,23.26891l-1.41077,2.39159c-1.00468,1.70342 0.25098,3.83325 2.26112,3.83325l2.834,0c-1.77555,-1.66754 -3.07095,-3.81272 -3.68436,-6.22484z"/>
    <path stroke="null" id="svg_4" fill="#CFC5FF"
          d="m32.76757,23.26891c-0.61422,2.41293 -1.90879,4.5573 -3.68435,6.22484l2.834,0c2.01011,0 3.26659,-2.12983 2.26108,-3.83325l-1.41074,-2.39159z"/>
    <path stroke="null" id="svg_5" fill="#977BFF"
          d="m6.62698,20.12544c0,1.08629 0.15121,2.13523 0.40765,3.14369l9.21829,-15.62609c-5.55497,1.55242 -9.62593,6.54745 -9.62593,12.48239z"/>
    <path stroke="null" id="svg_6" fill="#977BFF"
          d="m19.90073,33.11756c3.56587,0 6.7966,-1.38379 9.1816,-3.62352l-18.36403,0c2.38582,2.23973 5.61655,3.62352 9.18243,3.62352z"/>
    <path stroke="null" id="svg_7" fill="#977BFF"
          d="m33.17512,20.12551c0,-5.93494 -4.07094,-10.93004 -9.62598,-12.48317l9.21836,15.62607c0.25641,-1.00766 0.40762,-2.0566 0.40762,-3.14289z"/>
    <path stroke="null" id="svg_8" fill="white"
          d="m32.76757,23.26913l-9.21829,-15.62607c-1.16059,-0.32421 -2.38195,-0.50884 -3.64849,-0.50884c-1.26736,0 -2.48797,0.18463 -3.64856,0.50884l-9.21825,15.62607c0.61342,2.41293 1.90882,4.5573 3.68439,6.22484l18.36403,0c1.7763,-1.66754 3.07177,-3.81191 3.68517,-6.22484z"/>
    <path stroke="null" id="svg_9" fill="#562AE6"
          d="m24.14084,14.66191c-0.03974,-0.16859 -0.1691,-0.30364 -0.33902,-0.35325c-0.16992,-0.05035 -0.35542,-0.00833 -0.48479,0.11064l-3.42249,3.16657l-3.4225,-3.1597c-0.13018,-0.11897 -0.31487,-0.16099 -0.48478,-0.11064c-0.16836,0.04808 -0.29772,0.18006 -0.33902,0.34712l-2.0632,8.64989c-0.05376,0.20747 0.05771,0.42107 0.26111,0.4997l5.49808,2.04667c0.34998,0.13124 0.73739,0.13124 1.0873,0l5.50278,-2.04667c0.20347,-0.07556 0.31882,-0.2861 0.26968,-0.49356l-2.06313,-8.65676zm-7.79667,0.81773l2.94785,2.71956l-4.57682,3.98971l1.62897,-6.70927zm3.55037,9.60954l-5.04841,-1.87048l5.04841,-4.40464l5.03976,4.40464l-5.03976,1.87048zm0.60244,-6.88845l2.94785,-2.72182l1.62196,6.70919l-4.56981,-3.98737z"/>
</svg>